<?xml version="1.0" encoding="utf-8"?><!-- Uploaded to: SVG Repo, www.svgrepo.com, Generator: SVG Repo Mixer Tools --><svg fill="#fff" width="800px" height="800px" viewBox="0 0 32 32" version="1.1" xmlns="http://www.w3.org/2000/svg"><title>list-filled</title><path d="M30 15.25h-17c-0.414 0-0.75 0.336-0.75 0.75s0.336 0.75 0.75 0.75v0h17c0.414 0 0.75-0.336 0.75-0.75s-0.336-0.75-0.75-0.75v0zM13 5.75h17c0.414 0 0.75-0.336 0.75-0.75s-0.336-0.75-0.75-0.75v0h-17c-0.414 0-0.75 0.336-0.75 0.75s0.336 0.75 0.75 0.75v0zM30 26.25h-17c-0.414 0-0.75 0.336-0.75 0.75s0.336 0.75 0.75 0.75v0h17c0.414 0 0.75-0.336 0.75-0.75s-0.336-0.75-0.75-0.75v0zM4 1.25h2c1.519 0 2.75 1.231 2.75 2.75v2c0 1.519-1.231 2.75-2.75 2.75h-2c-1.519 0-2.75-1.231-2.75-2.75v-2c0-1.519 1.231-2.75 2.75-2.75zM3.997 12.25h2c1.519 0 2.75 1.231 2.75 2.75v2c0 1.519-1.231 2.75-2.75 2.75h-2c-1.519 0-2.75-1.231-2.75-2.75v-2c0-1.519 1.231-2.75 2.75-2.75zM3.997 23.25h2c1.519 0 2.75 1.231 2.75 2.75v2c0 1.519-1.231 2.75-2.75 2.75h-2c-1.519 0-2.75-1.231-2.75-2.75v-2c0-1.519 1.231-2.75 2.75-2.75z"></path></svg>